<svg xmlns="http://www.w3.org/2000/svg" viewBox="0 0 32 32" fill="none">
  <rect width="32" height="32" rx="8" fill="#7C3AED"/>
  <path d="M16 6C10.477 6 6 10.477 6 16s4.477 10 10 10 10-4.477 10-10S21.523 6 16 6z" fill="none" stroke="#fff" stroke-width="1.5"/>
  <path d="M12 14.5c0-1.38 1.12-2.5 2.5-2.5h3c1.38 0 2.5 1.12 2.5 2.5v0c0 1.38-1.12 2.5-2.5 2.5H16v3" stroke="#fff" stroke-width="1.5" stroke-linecap="round" stroke-linejoin="round"/>
  <circle cx="16" cy="22" r="1" fill="#F59E0B"/>
  <path d="M9.5 12c-.5-2 .5-4 3-5M22.5 12c.5-2-.5-4-3-5" stroke="#F59E0B" stroke-width="1" stroke-linecap="round" opacity="0.7"/>
  <circle cx="11" cy="16" r="0.8" fill="#F59E0B" opacity="0.5"/>
  <circle cx="21" cy="16" r="0.8" fill="#F59E0B" opacity="0.5"/>
</svg>
